<?xml version="1.0" encoding="iso-8859-1"?>
<!-- Uploaded to: SVG Repo, www.svgrepo.com, Generator: SVG Repo Mixer Tools -->
<!DOCTYPE svg PUBLIC "-//W3C//DTD SVG 1.1//EN" "http://www.w3.org/Graphics/SVG/1.1/DTD/svg11.dtd">
<svg fill="#000000" version="1.1" id="Capa_1" xmlns="http://www.w3.org/2000/svg" xmlns:xlink="http://www.w3.org/1999/xlink" 
	 width="800px" height="800px" viewBox="0 0 331.049 331.05"
	 xml:space="preserve">
<g>
	<path d="M310.587,158.254c12.892-8.218,20.462-21.108,20.462-35.218c0-23.743-21.817-43.126-48.893-43.725
		c-5.791-2.761-31.485-13.896-69.052-13.896c-26.803,0-53.521,5.688-79.455,16.911c-0.27-0.554-0.63-1.058-1.076-1.494
		c-1.037-1.016-2.704-1.662-3.88-1.533l-17.955,0.41c-0.252,0.005-0.504,0.031-0.756,0.076
		c-12.735,2.094-22.418,11.506-24.712,23.257H60.928v-71.68c0-2.971-2.404-5.376-5.375-5.376H22.854
		c-2.975,0-5.375,2.405-5.375,5.376v71.68H5.375c-2.971,0-5.375,2.404-5.375,5.375c0,2.974,2.405,5.375,5.375,5.375h12.103v185.892
		c0,2.977,2.401,5.376,5.375,5.376h32.698c2.972,0,5.375-2.399,5.375-5.376V113.794h24.35c2.645,13.499,15.029,23.743,29.887,23.743
		c1.498,0,13.83-0.422,13.83-0.422c2.511-0.087,4.569-1.882,5.071-4.242l39.455,32.678c0.872,0.722,1.947,1.152,3.071,1.226
		l43.076,2.847c3.664,4.303,14.095,18.656,9.811,38.445c-0.598,2.783,1.066,5.549,3.802,6.32l12.876,3.612
		c-0.588,1.953-0.037,4.072,1.449,5.475c0.147,0.143,14.75,15.418-0.231,53.875c-1.239,2.089-4.672,8.944-1.102,15.605
		c3.496,6.521,11.879,9.696,25.638,9.696c0.179,0,0.357-0.01,0.534-0.031c0.967-0.096,23.613-2.478,35.051-13.896
		c4.825-4.814,7.564-10.221,9.979-14.987c0.673-1.323,1.322-2.614,2.006-3.827c11.644-20.913,8.902-56.95-8.409-110.172
		L310.587,158.254z M210.985,141.558h-27.769c-2.973,0-5.376-2.401-5.376-5.375c0-2.971,2.403-5.375,5.376-5.375h27.769
		c2.972,0,5.376,2.405,5.376,5.375C216.361,139.157,213.957,141.558,210.985,141.558z M210.985,125.433h-27.769
		c-2.973,0-5.376-2.402-5.376-5.375c0-2.972,2.403-5.375,5.376-5.375h27.769c2.972,0,5.376,2.403,5.376,5.375
		C216.361,123.03,213.957,125.433,210.985,125.433z M248.549,207.491l-7.707-2.158c1.87-14.96-2.812-26.997-7.411-34.809
		l1.082,0.062C238.061,172.771,252.097,183.07,248.549,207.491z"/>
</g>
</svg>